<?xml version="1.0" standalone="no"?>
<!DOCTYPE svg PUBLIC "-//W3C//DTD SVG 20010904//EN"
 "http://www.w3.org/TR/2001/REC-SVG-20010904/DTD/svg10.dtd">
<svg version="1.0" xmlns="http://www.w3.org/2000/svg"
 width="203.000000pt" height="58.000000pt" viewBox="0 0 203.000000 58.000000"
 preserveAspectRatio="xMidYMid meet">
<metadata>
Created by potrace 1.16, written by Peter Selinger 2001-2019
</metadata>
<g transform="translate(0.000000,58.000000) scale(0.100000,-0.100000)"
fill="#000000" stroke="none">
<path d="M250 430 l0 -130 41 0 c28 0 46 6 55 18 19 25 17 32 -11 32 -21 0
-25 5 -25 28 0 24 3 27 32 26 27 -1 38 -9 60 -40 25 -38 26 -40 10 -67 -10
-16 -24 -36 -32 -45 -9 -9 -35 -48 -58 -85 -37 -59 -41 -71 -30 -85 11 -15 11
-16 -4 -4 -17 14 -35 1 -23 -18 3 -5 0 -7 -8 -4 -22 8 -31 -28 -11 -43 28 -21
41 -14 15 7 -13 11 -18 20 -13 20 6 0 14 -4 17 -10 10 -16 28 -12 22 4 -4 10
-1 13 9 9 8 -3 14 1 14 10 0 8 7 18 16 21 8 3 13 10 10 15 -4 5 -2 11 2 13 5
1 35 43 67 92 l57 88 30 -46 c25 -37 36 -46 59 -46 16 0 29 2 29 6 0 3 -18 32
-41 65 l-41 60 41 65 c23 36 41 66 41 68 0 1 -15 0 -33 -2 -25 -3 -39 -13 -58
-43 l-26 -40 -26 40 c-26 39 -30 41 -77 41 -49 0 -50 1 -50 30 l0 30 66 0 c52
0 70 4 80 18 7 9 14 20 14 25 0 4 -49 7 -110 7 l-110 0 0 -130z"/>
</g>
</svg>
