<?xml version="1.0" standalone="no"?>
<!DOCTYPE svg PUBLIC "-//W3C//DTD SVG 20010904//EN"
 "http://www.w3.org/TR/2001/REC-SVG-20010904/DTD/svg10.dtd">
<svg version="1.0" xmlns="http://www.w3.org/2000/svg"
 width="203.000000pt" height="58.000000pt" viewBox="0 0 203.000000 58.000000"
 preserveAspectRatio="xMidYMid meet">

<g transform="translate(0.000000,58.000000) scale(0.100000,-0.100000)"
fill="#000000" stroke="none">
<path d="M260 430 l0 -130 35 0 c24 0 37 6 45 20 9 18 8 20 -15 20 -22 0 -25
4 -25 35 0 34 1 35 39 35 34 0 42 -5 65 -40 14 -22 26 -42 26 -45 0 -4 -14
-27 -31 -51 -25 -36 -28 -48 -19 -59 18 -22 22 -19 54 31 l28 45 35 -50 c25
-39 40 -51 59 -51 28 0 28 2 -29 85 l-34 50 38 57 c22 31 39 59 39 62 0 4 -11
6 -24 6 -17 0 -32 -13 -53 -46 l-30 -46 -29 46 c-28 45 -30 46 -81 46 l-53 0
0 35 0 35 74 0 c70 0 86 7 86 36 0 2 -45 4 -100 4 l-100 0 0 -130z"/>
<path d="M343 190 c-11 -16 -10 -21 6 -29 23 -13 47 10 37 34 -8 21 -29 19
-43 -5z"/>
<path d="M314 145 c-4 -8 0 -23 7 -32 12 -14 11 -15 -8 -9 -28 9 -37 -7 -13
-22 16 -10 21 -7 39 21 14 23 17 35 9 44 -14 17 -27 16 -34 -2z"/>
<path d="M272 68 c3 -7 13 -15 24 -17 16 -3 17 -1 5 13 -16 19 -34 21 -29 4z"/>
<path d="M255 40 c3 -5 11 -10 16 -10 6 0 7 5 4 10 -3 6 -11 10 -16 10 -6 0
-7 -4 -4 -10z"/>
</g>
</svg>
