<?xml version="1.0" standalone="no"?>
<!DOCTYPE svg PUBLIC "-//W3C//DTD SVG 20010904//EN"
 "http://www.w3.org/TR/2001/REC-SVG-20010904/DTD/svg10.dtd">
<svg version="1.0" xmlns="http://www.w3.org/2000/svg"
 width="203.000000pt" height="58.000000pt" viewBox="0 0 203.000000 58.000000"
 preserveAspectRatio="xMidYMid meet">

<g transform="translate(0.000000,58.000000) scale(0.100000,-0.100000)"
fill="#000000" stroke="none">
<path d="M260 430 l0 -130 35 0 c24 0 37 6 45 20 9 18 8 20 -15 20 -22 0 -25
4 -25 35 0 34 1 35 39 35 34 0 42 -5 65 -40 14 -22 26 -42 26 -45 0 -4 -14
-27 -31 -51 -25 -36 -28 -48 -19 -59 18 -22 22 -19 54 31 l28 45 35 -50 c25
-39 40 -51 59 -51 28 0 28 2 -29 85 l-34 50 38 57 c22 31 39 59 39 62 0 4 -11
6 -24 6 -17 0 -32 -13 -53 -46 l-30 -46 -29 46 c-28 45 -30 46 -81 46 l-53 0
0 35 0 35 74 0 c70 0 86 7 86 36 0 2 -45 4 -100 4 l-100 0 0 -130z"/>
<path d="M1040 447 c-49 -17 -80 -67 -80 -129 0 -43 5 -55 33 -82 45 -46 95
-54 153 -25 39 18 44 24 32 36 -12 12 -19 11 -50 -2 -47 -19 -93 -5 -113 36
-29 55 -14 102 41 125 22 9 34 21 34 34 0 23 -2 23 -50 7z"/>
<path d="M1130 440 c0 -18 7 -20 60 -20 l60 0 0 -120 c0 -113 1 -120 20 -120
18 0 20 8 22 118 l3 117 38 3 c29 3 37 7 37 23 0 18 -8 19 -120 19 -113 0
-120 -1 -120 -20z"/>
<path d="M1430 440 c0 -17 7 -20 44 -20 43 0 76 -18 76 -41 0 -34 -22 -49 -70
-49 -43 0 -50 -3 -50 -20 0 -15 7 -20 28 -20 22 0 35 -10 60 -46 28 -39 37
-45 63 -42 28 3 33 11 84 127 30 68 55 126 55 128 0 3 -10 3 -22 1 -18 -2 -31
-24 -68 -110 -25 -59 -48 -108 -51 -108 -4 0 -14 11 -23 25 -15 23 -15 25 9
49 26 27 33 72 15 106 -12 22 -61 40 -111 40 -32 0 -39 -3 -39 -20z"/>
<path d="M600 320 c0 -123 1 -130 20 -130 19 0 20 7 20 110 l0 110 44 0 c47 0
76 -19 76 -49 0 -26 -22 -49 -50 -53 -15 -2 -26 -11 -28 -22 -4 -17 1 -18 38
-13 57 7 80 31 80 79 0 22 -4 48 -10 58 -13 25 -62 40 -131 40 l-59 0 0 -130z"/>
<path d="M820 320 l0 -130 87 0 c85 0 86 0 68 20 -13 15 -31 20 -67 20 l-48 0
0 35 c0 32 2 35 30 35 23 0 30 4 30 20 0 16 -7 20 -30 20 -28 0 -30 3 -30 35
0 34 1 35 43 35 26 0 51 8 67 20 l25 20 -87 0 -88 0 0 -130z"/>
<path d="M1732 384 c-8 -17 -9 -31 -2 -44 16 -29 12 -40 -14 -40 -20 0 -36
-16 -36 -36 0 -2 20 -4 44 -4 40 0 45 -3 55 -30 7 -20 17 -30 30 -30 12 0 21
3 21 7 0 7 -79 193 -85 201 -1 1 -7 -9 -13 -24z"/>
<path d="M343 190 c-11 -16 -10 -21 6 -29 23 -13 47 10 37 34 -8 21 -29 19
-43 -5z"/>
<path d="M314 145 c-4 -8 0 -23 7 -32 12 -14 11 -15 -8 -9 -28 9 -37 -7 -13
-22 16 -10 21 -7 39 21 14 23 17 35 9 44 -14 17 -27 16 -34 -2z"/>
<path d="M272 68 c3 -7 13 -15 24 -17 16 -3 17 -1 5 13 -16 19 -34 21 -29 4z"/>
<path d="M255 40 c3 -5 11 -10 16 -10 6 0 7 5 4 10 -3 6 -11 10 -16 10 -6 0
-7 -4 -4 -10z"/>
</g>
</svg>
